PathFileType	4	(X/Y/Z)	Walk9.trc
DataRate	CameraRate	NumFrames	NumMarkers	Units	OrigDataRate	OrigDataStartFrame	OrigNumFrames
200.000000	200.000000	6	59	mm	200.000000	435	603
Frame#	Times		LFHD		RFHD		RASI		RACR1		RUA1		RFA1		RWRR		RCAR		LACR1		LUA1		LElbow		LWRU		RTH2		RMT5		LTH3		LLFC		LTB1		LMT1		LTB4		LMT5		RLFC		LTB2		CLAV		LTB3		LToe		STRN		LFA1		LTH2		LTH4		LLMAL		RBHD		RTH3		LASI		LTH1		RMT1		RBack		RElbowM		C7		LPSI		LCAR		LBHD		RToe		RPSI		RCAL		RElbow		RTH4		RLMAL		RTH1		RTB2		RTB3		RTB4		LWRR		RTB1		RMMAL		LMMAL		T10		RWRU		LCAL		LElbowM
			X1	Y1	Z1	X2	Y2	Z2	X3	Y3	Z3	X4	Y4	Z4	X5	Y5	Z5	X6	Y6	Z6	X7	Y7	Z7	X8	Y8	Z8	X9	Y9	Z9	X10	Y10	Z10	X11	Y11	Z11	X12	Y12	Z12	X13	Y13	Z13	X14	Y14	Z14	X15	Y15	Z15	X16	Y16	Z16	X17	Y17	Z17	X18	Y18	Z18	X19	Y19	Z19	X20	Y20	Z20	X21	Y21	Z21	X22	Y22	Z22	X23	Y23	Z23	X24	Y24	Z24	X25	Y25	Z25	X26	Y26	Z26	X27	Y27	Z27	X28	Y28	Z28	X29	Y29	Z29	X30	Y30	Z30	X31	Y31	Z31	X32	Y32	Z32	X33	Y33	Z33	X34	Y34	Z34	X35	Y35	Z35	X36	Y36	Z36	X37	Y37	Z37	X38	Y38	Z38	X39	Y39	Z39	X40	Y40	Z40	X41	Y41	Z41	X42	Y42	Z42	X43	Y43	Z43	X44	Y44	Z44	X45	Y45	Z45	X46	Y46	Z46	X47	Y47	Z47	X48	Y48	Z48	X49	Y49	Z49	X50	Y50	Z50	X51	Y51	Z51	X52	Y52	Z52	X53	Y53	Z53	X54	Y54	Z54	X55	Y55	Z55	X56	Y56	Z56	X57	Y57	Z57	X58	Y58	Z58	X59	Y59	Z59

435	2.175	367.08	1581.5	26.869	369.57	1579.1	124.61	340.81	963.3	216.7	235.44	1374.6	245.99	212.84	1228.7	331.21	247.69	937.55	363.88	239.27	832.25	393.49	271	776.48	365.33	243.25	1376.5	-112.64	236.24	1231.2	-194.76	188.75	1088.9	-236.73	287.05	867.24	-290.79	322.51	639.15	209.86	359.81	27.221	172.18	297.97	571.95	-174.23	272.56	500.26	-164.19	243.9	336.41	-93.877	84.549	60.002	-92.45	177.59	282.83	-92.018	43.917	78.902	-164.62	261.79	459.83	195.86	156.15	304.32	-144.81	313.11	1349.3	68.857	115.96	222.21	-90.332	114.23	43.05	-109.23	378.54	1237.1	83.05	274.14	984.93	-257.77	347.55	664.8	-162.77	292.46	658.88	-187.87	1.4946	190.94	-125.85	199.52	1582.2	137.07	262.13	553.22	214.43	314.83	984.71	-129.1	290.06	743.04	-201.1	369.33	34.012	79.209	100.14	1310.2	168.55	131.32	1051.4	289.39	152.12	1420.4	79.04	81.931	988.2	-36.118	336.67	832.35	-284.18	214.62	1573.1	2.0282	415.26	31.629	86.113	81.559	984.84	98.377	181.53	28.19	122.4	179.27	1064.4	367.46	267.28	638.33	233.81	237.07	65.194	165.65	283.73	718.04	251.7	285.41	271.31	171.34	284.46	182.82	110.72	291.34	267.29	109.97	328.88	878.41	-229.7	310.39	352.34	106.98	251.59	73.05	79.045	36.627	170.89	-51.02	105.33	1090.3	48.938	258.97	833.74	321.76	-48.564	187.03	-65.479	170.7	1048.9	-138.93
436	2.18	371.76	1581.6	27.167	374.32	1579.3	124.92	344.6	962.56	217.05	240.32	1374.9	246.35	218.08	1228.9	331.63	253.63	938.13	364.76	245.61	832.85	394.6	277.5	777.14	366.5	247.72	1376.6	-112.33	240.19	1231.3	-194.45	192.05	1089.3	-236.43	287.33	866.57	-291.55	324.94	638.76	210.1	359.8	27.208	172.19	304.72	572.93	-174.51	280.25	501.13	-164.25	253.68	336.98	-94.545	98.757	59.371	-93.872	188.17	282.54	-92.81	57.808	78.135	-165.92	263.17	459.8	195.99	166.01	304.26	-145.24	317.62	1349.4	69.247	127.21	221.33	-91.186	128.79	42.939	-110.77	383.08	1236.8	82.9	276.12	984.33	-258.14	353.62	666.2	-163.15	298.5	659.82	-188.1	12.953	188.66	-126.2	204.28	1582.6	137.49	264.12	553.19	214.63	318.59	984.43	-129.15	295.29	744.03	-201.27	369.35	34.008	79.214	104.71	1310.6	169.24	136.7	1051.4	290.35	156.69	1420.7	79.433	85.934	988.75	-35.662	336.66	831.21	-285.48	219.27	1573.4	2.4512	415.38	31.592	86.197	85.696	985.44	98.832	181.5	28.276	122.32	184.84	1064.7	368.29	269.69	638.37	234.13	237.1	65.226	165.62	286.48	717.94	251.98	286.02	271.2	171.49	284.91	182.74	110.82	292.03	267.17	110.13	329.76	877.11	-230.77	311.36	352.18	107.18	251.66	73.046	79.024	48.501	168.76	-51.528	109.61	1090.8	49.365	265.24	834.33	322.85	-37.257	183.24	-65.829	173.93	1049.1	-138.7
437	2.185	376.43	1581.7	27.438	379.07	1579.4	125.2	348.36	961.82	217.43	245.21	1375.2	246.68	223.26	1229.1	332.04	259.56	938.7	365.63	251.95	833.44	395.71	284	777.78	367.68	252.21	1376.6	-112.02	244.13	1231.4	-194.15	195.33	1089.7	-236.14	287.57	865.91	-292.31	327.36	638.33	210.36	359.79	27.197	172.19	311.43	573.86	-174.74	287.91	501.94	-164.27	263.47	337.5	-95.163	113.21	58.637	-95.149	198.77	282.14	-93.5	71.95	77.143	-167.08	264.56	459.76	196.12	175.96	304.02	-145.62	322.13	1349.5	69.62	138.58	220.31	-91.954	143.61	42.752	-112.13	387.61	1236.4	82.682	278.05	983.73	-258.53	359.62	667.54	-163.52	304.48	660.7	-188.31	24.62	186.12	-126.56	209.04	1582.9	137.89	266.1	553.15	214.81	322.36	984.11	-129.21	300.47	744.94	-201.45	369.36	34.004	79.218	109.28	1311.1	169.92	142.08	1051.5	291.26	161.27	1421	79.82	89.962	989.31	-35.266	336.59	830.08	-286.79	223.91	1573.6	2.8458	415.49	31.556	86.278	89.807	986.02	99.22	181.48	28.356	122.25	190.38	1065	369.08	272.09	638.38	234.43	237.14	65.259	165.58	289.23	717.81	252.29	286.66	271.08	171.64	285.37	182.64	110.92	292.76	267.04	110.29	330.59	875.82	-231.87	312.38	352	107.39	251.73	73.042	79.002	60.558	166.45	-52.017	113.87	1091.2	49.768	271.52	834.9	323.94	-25.716	179.19	-66.217	177.17	1049.3	-138.46
438	2.19	381.11	1581.7	27.682	383.81	1579.5	125.46	352.07	961.07	217.83	250.11	1375.4	246.98	228.39	1229.3	332.42	265.46	939.25	366.5	258.27	834.02	396.82	290.49	778.42	368.88	256.72	1376.7	-111.71	248.05	1231.6	-193.84	198.58	1090	-235.85	287.76	865.27	-293.08	329.78	637.88	210.64	359.77	27.188	172.2	318.09	574.74	-174.92	295.53	502.72	-164.26	273.28	337.96	-95.721	127.91	57.806	-96.298	209.39	281.63	-94.085	86.331	75.942	-168.14	265.96	459.71	196.25	186	303.61	-145.96	326.64	1349.6	69.973	150.06	219.16	-92.628	158.66	42.494	-113.33	392.12	1236	82.395	279.95	983.14	-258.94	365.57	668.83	-163.87	310.4	661.53	-188.48	36.496	183.32	-126.91	213.79	1583.3	138.25	268.07	553.09	214.98	326.15	983.77	-129.27	305.59	745.76	-201.64	369.38	34	79.222	113.85	1311.5	170.57	147.46	1051.5	292.13	165.83	1421.2	80.204	94.011	989.87	-34.93	336.46	828.98	-288.11	228.55	1573.7	3.2128	415.59	31.522	86.358	93.893	986.58	99.542	181.45	28.43	122.19	195.9	1065.3	369.84	274.47	638.34	234.72	237.17	65.291	165.55	291.98	717.67	252.61	287.31	270.95	171.81	285.84	182.55	111.02	293.51	266.9	110.46	331.38	874.56	-233	313.44	351.8	107.62	251.79	73.04	78.98	72.803	163.97	-52.486	118.12	1091.6	50.146	277.8	835.46	325.05	-13.931	174.89	-66.63	180.44	1049.5	-138.21
439	2.195	385.78	1581.6	27.903	388.55	1579.6	125.69	355.76	960.34	218.27	255.01	1375.6	247.26	233.46	1229.5	332.78	271.36	939.79	367.37	264.58	834.59	397.92	296.99	779.04	370.1	261.26	1376.7	-111.38	251.96	1231.7	-193.54	201.79	1090.4	-235.56	287.89	864.66	-293.85	332.19	637.41	210.95	359.76	27.181	172.2	324.71	575.57	-175.03	303.11	503.45	-164.22	283.1	338.37	-96.208	142.85	56.886	-97.333	220.06	281.02	-94.562	100.94	74.55	-169.09	267.38	459.66	196.38	196.12	303.02	-146.25	331.15	1349.6	70.301	161.65	217.86	-93.201	173.94	42.174	-114.4	396.63	1235.6	82.04	281.8	982.54	-259.35	371.45	670.07	-164.21	316.27	662.28	-188.63	48.581	180.28	-127.27	218.54	1583.6	138.59	270.03	553.02	215.14	329.97	983.4	-129.34	310.65	746.5	-201.83	369.39	33.997	79.225	118.42	1311.9	171.21	152.83	1051.4	292.95	170.4	1421.4	80.587	98.08	990.42	-34.654	336.26	827.9	-289.44	233.2	1573.8	3.553	415.69	31.491	86.434	97.953	987.12	99.798	181.43	28.497	122.14	201.37	1065.5	370.57	276.85	638.27	234.97	237.21	65.323	165.52	294.75	717.51	252.94	287.98	270.82	171.98	286.32	182.45	111.12	294.29	266.76	110.63	332.12	873.32	-234.14	314.54	351.59	107.85	251.86	73.039	78.957	85.236	161.32	-52.931	122.35	1092	50.501	284.07	835.99	326.15	-1.8932	170.37	-67.057	183.73	1049.7	-137.94
440	2.2	390.45	1581.5	28.1	393.29	1579.6	125.89	359.42	959.63	218.71	259.93	1375.7	247.52	238.48	1229.6	333.13	277.23	940.31	368.24	270.88	835.15	399.01	303.48	779.65	371.32	265.81	1376.7	-111.05	255.86	1231.8	-193.24	204.97	1090.7	-235.28	287.98	864.08	-294.63	334.6	636.93	211.27	359.75	27.176	172.21	331.31	576.36	-175.08	310.64	504.14	-164.15	292.92	338.72	-96.614	158.01	55.886	-98.265	230.76	280.33	-94.933	115.78	72.987	-169.95	268.81	459.61	196.52	206.35	302.27	-146.48	335.67	1349.5	70.602	173.36	216.44	-93.671	189.45	41.802	-115.35	401.13	1235.1	81.616	283.61	981.96	-259.78	377.27	671.27	-164.52	322.09	662.98	-188.73	60.88	177.01	-127.61	223.29	1583.8	138.89	271.99	552.92	215.27	333.83	983.02	-129.4	315.66	747.14	-202.03	369.4	33.995	79.228	123.01	1312.2	171.83	158.2	1051.4	293.72	174.97	1421.7	80.969	102.16	990.95	-34.437	336.01	826.86	-290.77	237.84	1573.9	3.867	415.79	31.463	86.507	101.98	987.63	99.989	181.42	28.557	122.1	206.82	1065.8	371.27	279.21	638.15	235.2	237.25	65.355	165.49	297.51	717.34	253.27	288.68	270.67	172.15	286.82	182.34	111.21	295.1	266.61	110.79	332.81	872.11	-235.29	315.7	351.36	108.1	251.92	73.042	78.935	97.86	158.52	-53.353	126.57	1092.3	50.831	290.34	836.51	327.26	10.405	165.62	-67.489	187.04	1049.9	-137.67
